HIERARCHY
ROOT root     
{
	OFFSET 0.0000 0.0000 0.0000
	CHANNELS 6 Xposition Yposition Zposition Zrotation Yrotation Xrotation
	JOINT pelvis   
	{
		OFFSET 0.0000 0.0000 0.0000
		CHANNELS 3 Zrotation Yrotation Xrotation
		JOINT thorax   
		{
			OFFSET 0.0000 23.0750 -5.0000
			CHANNELS 3 Zrotation Yrotation Xrotation
			JOINT rclavicle
			{
				OFFSET 0.0000 28.0009 0.0000
				CHANNELS 3 Zrotation Yrotation Xrotation
				JOINT rhumerus 
				{
					OFFSET -18.5725 5.5939 0.0000
					CHANNELS 3 Zrotation Yrotation Xrotation
					JOINT rradius  
					{
						OFFSET -24.8459 0.0000 0.0000
						CHANNELS 3 Zrotation Yrotation Xrotation
						JOINT rhand    
						{
							OFFSET -24.5477 0.0000 0.0000
							CHANNELS 3 Zrotation Yrotation Xrotation
							End Site
							{
								OFFSET -8.1826 0.0000 0.0000
							}
						}
					}
				}
			}
			JOINT lclavicle
			{
				OFFSET 0.0000 28.0009 0.0000
				CHANNELS 3 Zrotation Yrotation Xrotation
				JOINT lhumerus 
				{
					OFFSET 18.5725 5.5939 0.0000
					CHANNELS 3 Zrotation Yrotation Xrotation
					JOINT lradius  
					{
						OFFSET 24.8459 0.0000 0.0000
						CHANNELS 3 Zrotation Yrotation Xrotation
						JOINT lhand    
						{
							OFFSET 24.5477 0.0000 0.0000
							CHANNELS 3 Zrotation Yrotation Xrotation
							End Site
							{
								OFFSET 8.1826 0.0000 0.0000
							}
						}
					}
				}
			}
			JOINT head     
			{
				OFFSET 0.0000 35.2030 0.0000
				CHANNELS 3 Zrotation Yrotation Xrotation
				End Site
				{
					OFFSET 0.0000 11.7343 0.0000
				}
			}
		}
		JOINT rfemur   
		{
			OFFSET -8.2817 0.0000 0.0000
			CHANNELS 3 Zrotation Yrotation Xrotation
			JOINT rtibia   
			{
				OFFSET 0.0000 -43.3627 0.0000
				CHANNELS 3 Zrotation Yrotation Xrotation
				JOINT rfoot    
				{
					OFFSET 0.0000 -38.2947 0.0000
					CHANNELS 3 Zrotation Yrotation Xrotation
					JOINT rtoes    
					{
						OFFSET 0.0000 0.0000 16.6054
						CHANNELS 3 Zrotation Yrotation Xrotation
						End Site
						{
							OFFSET 0.0000 0.0000 5.5351
						}
					}
				}
			}
		}
		JOINT lfemur   
		{
			OFFSET 8.2817 0.0000 0.0000
			CHANNELS 3 Zrotation Yrotation Xrotation
			JOINT ltibia   
			{
				OFFSET 0.0000 -43.3627 0.0000
				CHANNELS 3 Zrotation Yrotation Xrotation
				JOINT lfoot    
				{
					OFFSET 0.0000 -38.2947 0.0000
					CHANNELS 3 Zrotation Yrotation Xrotation
					JOINT ltoes    
					{
						OFFSET 0.0000 0.0000 16.6054
						CHANNELS 3 Zrotation Yrotation Xrotation
						End Site
						{
							OFFSET 0.0000 0.0000 5.5351
						}
					}
				}
			}
		}
	}
}
MOTION
Frames: 13
Frame Time: .0333333
106.67 69.092 16.291 93.5018 -88.3371 -26.7635 0 -0 0 -2.08661 -7.42953 24.4703 19.1309 -13.5243 3.73468e-05 59.4629 -15.0491 -29.7663 5.83063e-08 10.8843 6.12007e-07 -2.8181 17.7936 -0.441186 -11.9845 15.0845 -4.41188e-05 -62.486 23.6387 -15.741 0 -15.7764 0 1.41021 -5.77913 -0.0712013 3.79624 2.05212 -38.5096 10.0529 -8.26798 -111.607 -0 -0 76.0821 1.53758e-06 -3.11713 -15.6341 0.840801 2.33503e-06 -60.138 -10.7481 2.39177 -111.164 -0 -0 75.6681 -8.29267e-05 9.63721 -18.6508 -3.10834 8.1423e-06 -42.6931 
106.54 69.036 16.289 93.3792 -88.3546 -26.5662 0 -0 0 -2.07788 -7.44167 24.4957 19.2102 -13.5691 -0.000109077 59.5179 -14.878 -29.6002 5.91595e-08 11.0382 6.1225e-07 -2.82481 17.8618 -0.443992 -12.096 15.1616 3.59025e-05 -62.5707 23.3656 -15.6513 0 -16.1409 0 1.47074 -5.79862 -0.0745018 3.76596 2.06117 -38.6911 10.066 -8.26412 -111.659 -0 -0 76.2473 -1.23757e-05 -3.10387 -15.7669 0.844209 -6.68069e-07 -60.2791 -10.724 2.40615 -111.232 -0 -0 75.8512 -3.58748e-05 9.6799 -18.7891 -3.14442 -2.36448e-05 -42.8402 
106.42 68.98 16.285 93.3104 -88.3479 -26.4046 0 -0 0 -2.06881 -7.45722 24.5005 19.2979 -13.6059 -4.90776e-05 59.5865 -14.7123 -29.4301 0 11.2353 0 -2.90217 17.8349 -0.455504 -12.2258 15.2286 -1.21135e-05 -62.6448 23.0794 -15.5701 0 -16.4973 0 1.52395 -5.83152 -0.0775972 3.73298 2.07371 -38.8653 10.0731 -8.26038 -111.707 -0 -0 76.4087 9.98798e-06 -3.10469 -15.9281 0.852796 -3.07128e-06 -60.3911 -10.7025 2.41786 -111.301 -0 -0 76.0338 5.20027e-05 9.73204 -18.9346 -3.18537 -2.69302e-05 -42.977 
106.28 68.925 16.282 93.3216 -88.3863 -26.3439 0 -0 0 -2.06297 -7.4788 24.4795 19.3934 -13.6348 0.000136064 59.6673 -14.5359 -29.3037 6.14543e-08 11.4515 6.12905e-07 -3.04757 17.7139 -0.475 -12.378 15.2819 4.12691e-05 -62.7031 22.7814 -15.5093 0 -16.8459 0 1.56047 -5.89651 -0.0804045 3.69872 2.09382 -39.0263 10.0706 -8.25902 -111.754 -0 -0 76.5659 1.25811e-05 -3.12026 -16.1189 0.866994 -4.07201e-06 -60.4915 -10.6875 2.42504 -111.365 -0 -0 76.2121 6.17408e-05 9.79152 -19.095 -3.23133 2.58519e-06 -43.086 
106.14 68.871 16.275 93.1833 -88.3756 -26.0748 0 -0 0 -2.04881 -7.50653 24.3911 19.518 -13.6655 -0.000131793 59.7361 -14.388 -29.0347 0 11.7629 0 -3.34749 17.4274 -0.51319 -12.5556 15.3368 -5.42781e-05 -62.7275 22.4517 -15.449 0 -17.16 0 1.61871 -5.9198 -0.0836998 3.66637 2.12152 -39.1788 10.0641 -8.2534 -111.824 -0 -0 76.7251 5.41164e-06 -3.14964 -16.3531 0.8876 4.46907e-06 -60.4792 -10.6732 2.42476 -111.456 -0 -0 76.3901 1.06909e-05 9.85243 -19.265 -3.27953 2.67354e-05 -43.1772 
105.99 68.817 16.268 93.1348 -88.3654 -25.8942 0 -0 0 -2.03616 -7.54059 24.2715 19.6646 -13.6803 0.000112181 59.7871 -14.2245 -28.8532 0 12.0336 0 -3.63136 17.1944 -0.549176 -12.7621 15.3748 6.02432e-06 -62.7282 22.1028 -15.4269 9.60656e-08 -17.4613 -6.2555e-07 1.6629 -5.97323 -0.0868 3.6376 2.16002 -39.3308 10.0432 -8.25019 -111.884 -0 -0 76.8816 2.37984e-06 -3.19115 -16.6195 0.913605 -1.70673e-06 -60.4424 -10.6635 2.42026 -111.54 -0 -0 76.5605 -4.07743e-05 9.91223 -19.4526 -3.33057 1.50802e-05 -43.233 
105.83 68.767 16.26 92.9607 -88.3738 -25.6003 0 -0 0 -2.01974 -7.57797 24.1294 19.8282 -13.7 1.24378e-05 59.8471 -14.0283 -28.57 0 12.392 0 -4.12293 16.6778 -0.604594 -12.995 15.3994 -3.00687e-05 -62.7067 21.715 -15.4432 0 -17.7432 0 1.71204 -6.02701 -0.0900963 3.614 2.2051 -39.4957 10.0123 -8.25147 -111.935 -0 -0 77.0328 5.06269e-07 -3.24081 -16.9164 0.943917 1.58239e-06 -60.3596 -10.6529 2.41359 -111.61 -0 -0 76.7267 5.28158e-05 9.96596 -19.6565 -3.38279 -8.04089e-06 -43.2652 
105.66 68.717 16.25 92.715 -88.3465 -25.2164 0 -0 0 -1.99946 -7.6217 23.9673 20.0215 -13.7159 -1.37406e-05 59.8862 -13.7979 -28.2489 0 12.7724 0 -4.68822 16.0639 -0.661867 -13.2571 15.4198 0.000102486 -62.6571 21.2817 -15.491 9.9406e-08 -18.0168 -6.27023e-07 1.76792 -6.08476 -0.0940007 3.59712 2.25858 -39.6858 9.96632 -8.25607 -111.969 -0 -0 77.1872 3.08424e-06 -3.29801 -17.2323 0.97801 4.55845e-07 -60.2497 -10.6367 2.40525 -111.668 -0 -0 76.8874 1.64096e-05 10.0124 -19.8744 -3.43467 -2.9175e-05 -43.2831 
105.48 68.669 16.238 92.3186 -88.3299 -24.6944 0 -0 0 -1.97429 -7.67215 23.7869 20.2493 -13.7301 -5.2689e-05 59.8778 -13.5063 -27.9394 7.0654e-08 13.0907 6.15785e-07 -5.24444 15.5023 -0.714292 -13.5487 15.4477 4.22212e-05 -62.5759 20.7886 -15.5596 0 -18.2838 0 1.84007 -6.13647 -0.0985978 3.5883 2.31693 -39.9119 9.90332 -8.26276 -111.989 -0 -0 77.3433 6.2163e-06 -3.3614 -17.5571 1.01501 -3.56701e-06 -60.1328 -10.6105 2.39612 -111.71 -0 -0 77.0475 -7.56915e-06 10.0512 -20.1015 -3.48597 3.83355e-05 -43.3009 
105.28 68.621 16.224 91.6899 -88.3162 -23.9515 0 -0 0 -1.94175 -7.72872 23.5903 20.5193 -13.7336 -0.000103361 59.8094 -13.1446 -27.6863 0 13.3076 0 -5.74156 15.0707 -0.760101 -13.8719 15.4797 -4.85223e-05 -62.4605 20.2323 -15.6462 0 -18.5507 0 1.93197 -6.18329 -0.104399 3.58713 2.37469 -40.1797 9.82222 -8.27137 -111.989 -0 -0 77.5064 1.16617e-05 -3.4311 -17.8777 1.05441 4.54951e-06 -60.0362 -10.5691 2.38693 -111.735 -0 -0 77.2092 5.0092e-05 10.0849 -20.3323 -3.53628 -6.01869e-05 -43.3389 
105.08 68.574 16.207 90.8698 -88.313 -23.0356 0 -0 0 -1.89965 -7.78962 23.3792 20.8272 -13.7193 3.26042e-05 59.6877 -12.7106 -27.4785 7.25584e-08 13.4264 6.16429e-07 -6.17566 14.7632 -0.800804 -14.2255 15.5101 7.12424e-05 -62.3125 19.6108 -15.7465 0 -18.8225 0 2.04716 -6.22465 -0.111298 3.59255 2.42511 -40.4937 9.72345 -8.28248 -111.958 -0 -0 77.6746 2.63399e-05 -3.50943 -18.1856 1.0965 6.07794e-07 -59.9831 -10.5073 2.37974 -111.733 -0 -0 77.3725 -4.0637e-05 10.1195 -20.563 -3.58714 -1.18992e-05 -43.4143 
104.85 68.528 16.186 89.784 -88.2783 -21.8577 0 -0 0 -1.84579 -7.85257 23.1554 21.1691 -13.6811 7.48673e-05 59.5124 -12.207 -27.3107 7.2676e-08 13.4472 6.16467e-07 -6.5415 14.5747 -0.837445 -14.6096 15.5354 2.32524e-05 -62.1316 18.9208 -15.8508 1.05968e-07 -19.0956 -6.30014e-07 2.18749 -6.26099 -0.119699 3.60286 2.4614 -40.8556 9.60498 -8.29322 -111.895 -0 -0 77.8498 -1.00682e-05 -3.60066 -18.4738 1.14229 -4.26533e-06 -59.9894 -10.4204 2.37491 -111.7 -0 -0 77.5392 -5.39393e-05 10.1619 -20.7897 -3.64012 -8.46832e-06 -43.5379 
104.61 68.482 16.163 88.3968 -88.2792 -20.426 0 -0 0 -1.77945 -7.9144 22.9226 21.5424 -13.6096 2.80891e-05 59.2927 -11.6376 -27.1819 0 13.3768 0 -6.83488 14.4988 -0.870463 -15.02 15.5427 8.96422e-05 -61.9165 18.1612 -15.9483 1.07643e-07 -19.3675 -6.30811e-07 2.35251 -6.29486 -0.1294 3.61609 2.47692 -41.2642 9.46787 -8.30508 -111.787 -0 -0 78.0301 1.05192e-05 -3.71113 -18.7444 1.19399 -6.06533e-06 -60.064 -10.3058 2.37366 -111.628 -0 -0 77.7094 -5.29317e-05 10.2218 -21.0083 -3.69873 2.2531e-05 -43.7199 
